<svg xmlns="http://www.w3.org/2000/svg" viewBox="0 0 1200 800" role="img" aria-labelledby="title desc">
  <title id="title">CrossFit training</title>
  <desc id="desc">A high-intensity CrossFit scene with a barbell, box, timer, and dynamic athlete silhouette.</desc>
  <defs>
    <linearGradient id="bg" x1="0" y1="0" x2="1" y2="1"><stop offset="0" stop-color="#0f3329"/><stop offset=".48" stop-color="#0c2720"/><stop offset="1" stop-color="#071714"/></linearGradient>
    <linearGradient id="gold" x1="0" y1="0" x2="1" y2="0"><stop offset="0" stop-color="#f0d68b"/><stop offset=".55" stop-color="#c9a84c"/><stop offset="1" stop-color="#8d6b27"/></linearGradient>
  </defs>
  <rect width="1200" height="800" fill="url(#bg)"/>
  <path d="M0 612c151-58 302-83 454-75 190 11 383 73 580 81 62 3 117-1 166-13v195H0z" fill="#071714" opacity=".48"/>
  <circle cx="1005" cy="155" r="250" fill="#c9a84c" opacity=".08"/>
  <g transform="translate(143 130)" stroke="#c9a84c" stroke-width="16" stroke-linecap="round"><path d="M20 214h276"/><path d="M54 156v116M256 156v116"/><path d="M82 185h146"/></g>
  <g transform="translate(390 120)">
    <circle cx="205" cy="86" r="46" fill="#f2ead8"/>
    <path d="M168 140l92 10 80 110-51 36-62-78-56 107 73 121-57 36-89-144 46-119-74 49-42-45 94-72c15-10 27-14 46-11z" fill="url(#gold)"/>
    <path d="M111 72h363" stroke="#f2ead8" stroke-width="18" stroke-linecap="round"/>
    <circle cx="72" cy="72" r="45" fill="#c9a84c"/><circle cx="513" cy="72" r="45" fill="#c9a84c"/>
  </g>
  <g transform="translate(778 464)">
    <rect x="0" y="0" width="244" height="124" rx="18" fill="#113328" stroke="#c9a84c" stroke-width="3"/>
    <text x="42" y="76" fill="#f2ead8" font-family="Arial, sans-serif" font-size="52" font-weight="700">12:00</text>
    <text x="54" y="102" fill="#c9a84c" font-family="Arial, sans-serif" font-size="18" font-weight="700" letter-spacing="5">AMRAP</text>
  </g>
  <rect x="170" y="538" width="220" height="118" rx="8" fill="#1a4535" stroke="#c9a84c" stroke-width="4"/>
  <text x="217" y="610" fill="#c9a84c" font-family="Arial, sans-serif" font-size="40" font-weight="700">BOX</text>
  <rect x="80" y="684" width="1040" height="2" fill="#c9a84c" opacity=".45"/>
</svg>
