<svg xmlns="http://www.w3.org/2000/svg" viewBox="0 0 1200 800" role="img" aria-labelledby="title desc">
  <title id="title">Functional bodybuilding</title>
  <desc id="desc">Controlled dumbbell training with tempo marks, symmetry lines, and premium gym styling.</desc>
  <defs>
    <linearGradient id="bg" x1="0" y1="0" x2="1" y2="1"><stop offset="0" stop-color="#1a4535"/><stop offset=".52" stop-color="#0c2720"/><stop offset="1" stop-color="#061613"/></linearGradient>
    <linearGradient id="skin" x1="0" y1="0" x2="1" y2="1"><stop offset="0" stop-color="#f2ead8"/><stop offset="1" stop-color="#c9a84c"/></linearGradient>
  </defs>
  <rect width="1200" height="800" fill="url(#bg)"/>
  <path d="M220 116v548M980 116v548M314 176h572M314 584h572" stroke="#c9a84c" stroke-width="3" opacity=".18"/>
  <circle cx="600" cy="398" r="300" fill="#c9a84c" opacity=".06"/>
  <g transform="translate(356 112)">
    <circle cx="244" cy="86" r="48" fill="#f2ead8"/>
    <path d="M166 162c44-31 111-33 158 0l50 126-52 22-37-80v277h-62V337h-39v170h-63V230l-38 80-52-22 51-126z" fill="url(#skin)"/>
    <path d="M82 284l-54-22M404 284l54-22" stroke="#f2ead8" stroke-width="18" stroke-linecap="round"/>
    <rect x="0" y="224" width="58" height="76" rx="15" fill="#113328" stroke="#c9a84c" stroke-width="5"/>
    <rect x="430" y="224" width="58" height="76" rx="15" fill="#113328" stroke="#c9a84c" stroke-width="5"/>
    <path d="M135 118c24 28 60 43 109 43s86-15 110-43" fill="none" stroke="#113328" stroke-width="12" opacity=".45"/>
  </g>
  <g transform="translate(92 488)"><rect x="0" y="0" width="250" height="122" rx="20" fill="#113328" stroke="#c9a84c" stroke-width="3"/><text x="30" y="46" fill="#c9a84c" font-family="Arial, sans-serif" font-size="22" font-weight="700" letter-spacing="5">TEMPO</text><text x="30" y="91" fill="#f2ead8" font-family="Arial, sans-serif" font-size="44" font-weight="700">3-1-1</text></g>
  <g transform="translate(856 488)"><rect x="0" y="0" width="250" height="122" rx="20" fill="#113328" stroke="#c9a84c" stroke-width="3"/><text x="28" y="46" fill="#c9a84c" font-family="Arial, sans-serif" font-size="22" font-weight="700" letter-spacing="4">CONTROL</text><path d="M42 86h165" stroke="#f2ead8" stroke-width="9" stroke-linecap="round"/><path d="M42 86l28-28M207 86l-28-28" stroke="#f2ead8" stroke-width="9" stroke-linecap="round"/></g>
  <rect x="78" y="684" width="1044" height="2" fill="#c9a84c" opacity=".45"/>
</svg>
