<svg xmlns="http://www.w3.org/2000/svg" viewBox="0 0 1200 800" role="img" aria-labelledby="title desc">
  <title id="title">Powerlifting</title>
  <desc id="desc">A lifter under a heavy barbell inside a rack, with competition-style strength cues.</desc>
  <defs>
    <linearGradient id="bg" x1="0" y1="0" x2="1" y2="1"><stop offset="0" stop-color="#14382e"/><stop offset=".5" stop-color="#0c2720"/><stop offset="1" stop-color="#061512"/></linearGradient>
    <linearGradient id="gold" x1="0" y1="0" x2="1" y2="1"><stop offset="0" stop-color="#efd487"/><stop offset=".6" stop-color="#c9a84c"/><stop offset="1" stop-color="#896824"/></linearGradient>
  </defs>
  <rect width="1200" height="800" fill="url(#bg)"/>
  <circle cx="590" cy="392" r="310" fill="#c9a84c" opacity=".06"/>
  <g stroke="#c9a84c" stroke-width="10" opacity=".44"><path d="M190 120v542M1010 120v542M190 172h820M190 624h820"/><path d="M278 120v542M922 120v542" opacity=".55"/></g>
  <g transform="translate(122 168)">
    <path d="M70 164h816" stroke="#f2ead8" stroke-width="20" stroke-linecap="round"/>
    <g fill="url(#gold)"><rect x="0" y="91" width="34" height="146" rx="12"/><rect x="42" y="72" width="46" height="184" rx="14"/><rect x="96" y="104" width="26" height="120" rx="10"/><rect x="934" y="91" width="34" height="146" rx="12"/><rect x="880" y="72" width="46" height="184" rx="14"/><rect x="846" y="104" width="26" height="120" rx="10"/></g>
  </g>
  <g transform="translate(428 250)"><circle cx="174" cy="66" r="47" fill="#f2ead8"/><path d="M107 124c42-31 93-35 135 0l82 83-42 48-48-39 30 194h-65l-23-120-25 120H86l32-194-50 39-41-48 80-83z" fill="url(#gold)"/><path d="M81 156c42 38 103 57 183 57" stroke="#113328" stroke-width="13" stroke-linecap="round" opacity=".5"/></g>
  <g transform="translate(82 504)"><rect x="0" y="0" width="264" height="130" rx="20" fill="#113328" stroke="#c9a84c" stroke-width="3"/><text x="28" y="48" fill="#c9a84c" font-family="Arial, sans-serif" font-size="22" font-weight="700" letter-spacing="5">TOTAL</text><text x="28" y="96" fill="#f2ead8" font-family="Arial, sans-serif" font-size="46" font-weight="700">SBD</text></g>
  <g transform="translate(862 504)"><rect x="0" y="0" width="264" height="130" rx="20" fill="#113328" stroke="#c9a84c" stroke-width="3"/><text x="28" y="48" fill="#c9a84c" font-family="Arial, sans-serif" font-size="22" font-weight="700" letter-spacing="5">MEET</text><text x="28" y="96" fill="#f2ead8" font-family="Arial, sans-serif" font-size="46" font-weight="700">READY</text></g>
  <rect x="80" y="684" width="1040" height="2" fill="#c9a84c" opacity=".45"/>
</svg>
