<svg xmlns="http://www.w3.org/2000/svg" viewBox="0 0 1200 800" role="img" aria-labelledby="title desc">
  <title id="title">Sports rehabilitation training</title>
  <desc id="desc">An athlete rebuilding movement with a coach, mobility target, and recovery-focused gym setting.</desc>
  <defs>
    <linearGradient id="bg" x1="0" y1="0" x2="1" y2="1"><stop offset="0" stop-color="#183f32"/><stop offset=".52" stop-color="#0c2720"/><stop offset="1" stop-color="#071915"/></linearGradient>
    <linearGradient id="gold" x1="0" y1="0" x2="1" y2="1"><stop offset="0" stop-color="#f0d68b"/><stop offset=".58" stop-color="#c9a84c"/><stop offset="1" stop-color="#8d6b27"/></linearGradient>
  </defs>
  <rect width="1200" height="800" fill="url(#bg)"/>
  <circle cx="1010" cy="130" r="230" fill="#c9a84c" opacity=".08"/>
  <circle cx="185" cy="655" r="260" fill="#f2ead8" opacity=".05"/>
  <path d="M80 642c160-42 321-62 483-61 185 1 372 32 557 92" fill="none" stroke="#c9a84c" stroke-width="4" opacity=".38"/>
  <rect x="118" y="104" width="92" height="520" rx="20" fill="#f2ead8" opacity=".08"/>
  <path d="M164 144v440M128 203h72M128 286h72M128 369h72M128 452h72M128 535h72" stroke="#c9a84c" stroke-width="8" stroke-linecap="round" opacity=".55"/>
  <g transform="translate(335 178)">
    <circle cx="120" cy="74" r="48" fill="#f2ead8"/>
    <path d="M112 132c64 5 123 43 145 106l35 101-58 20-39-85-53 86 87 130-59 35-98-144 40-133-68 71-53-38 86-111c10-24 18-34 35-38z" fill="#d8b16b"/>
    <path d="M244 363c69 6 139 4 210-6" fill="none" stroke="#f2ead8" stroke-width="22" stroke-linecap="round"/>
    <path d="M324 188c58-54 126-85 203-91" fill="none" stroke="#c9a84c" stroke-width="12" stroke-linecap="round"/>
    <circle cx="552" cy="92" r="18" fill="#c9a84c"/>
  </g>
  <g transform="translate(740 420)">
    <rect x="0" y="0" width="270" height="118" rx="22" fill="#113328" stroke="#c9a84c" stroke-width="3" opacity=".95"/>
    <path d="M50 78c36-52 76-52 113 0s75 52 110 0" fill="none" stroke="#f2ead8" stroke-width="9" stroke-linecap="round" opacity=".78"/>
    <text x="34" y="42" fill="#c9a84c" font-family="Arial, sans-serif" font-size="24" font-weight="700" letter-spacing="5">REBUILD</text>
  </g>
  <rect x="64" y="686" width="1072" height="2" fill="#c9a84c" opacity=".45"/>
</svg>
